G04 Layer: TopLayer*
G04 EasyEDA v6.4.31, 2022-01-29 17:29:22*
G04 67aa8dcb152247358fa929708868e3bd,10*
G04 Gerber Generator version 0.2*
G04 Scale: 100 percent, Rotated: No, Reflected: No *
G04 Dimensions in millimeters *
G04 leading zeros omitted , absolute positions ,4 integer and 5 decimal *
%FSLAX45Y45*%
%MOMM*%

%ADD10C,0.2540*%
%ADD11C,1.5240*%
%ADD12C,1.8796*%
%ADD13C,1.4986*%

%LPD*%
G36*
X736092Y3425901D02*
G01*
X732180Y3426663D01*
X728878Y3428898D01*
X726694Y3432200D01*
X725932Y3436061D01*
X725932Y4763922D01*
X726694Y4767834D01*
X728878Y4771136D01*
X732180Y4773320D01*
X736092Y4774082D01*
X2863951Y4774082D01*
X2867812Y4773320D01*
X2871114Y4771136D01*
X2873298Y4767834D01*
X2874111Y4763922D01*
X2874111Y3436061D01*
X2873298Y3432200D01*
X2871114Y3428898D01*
X2867812Y3426663D01*
X2863951Y3425901D01*
X2778506Y3425901D01*
X2774391Y3426764D01*
X2770987Y3429203D01*
X2768854Y3432860D01*
X2768396Y3437026D01*
X2769616Y3440988D01*
X2772359Y3444189D01*
X2783078Y3452266D01*
X2793695Y3462528D01*
X2802940Y3474059D01*
X2810713Y3486607D01*
X2816860Y3500018D01*
X2821330Y3514039D01*
X2824073Y3528568D01*
X2824988Y3543300D01*
X2824073Y3558032D01*
X2821330Y3572560D01*
X2816860Y3586581D01*
X2810713Y3599992D01*
X2802940Y3612540D01*
X2793695Y3624072D01*
X2783078Y3634333D01*
X2771292Y3643223D01*
X2758541Y3650589D01*
X2744927Y3656329D01*
X2730754Y3660394D01*
X2716174Y3662679D01*
X2707487Y3662934D01*
X2703779Y3663746D01*
X2700578Y3665880D01*
X2377135Y3989324D01*
X2370937Y3994454D01*
X2364232Y3998010D01*
X2357018Y4000195D01*
X2348992Y4001008D01*
X1541170Y4001008D01*
X1537106Y4001871D01*
X1533702Y4004259D01*
X1531569Y4007815D01*
X1529080Y4014978D01*
X1522933Y4027119D01*
X1515211Y4038346D01*
X1506067Y4048506D01*
X1495653Y4057294D01*
X1484172Y4064609D01*
X1471777Y4070350D01*
X1458772Y4074414D01*
X1445310Y4076649D01*
X1431696Y4077106D01*
X1418132Y4075785D01*
X1404874Y4072585D01*
X1392123Y4067708D01*
X1380185Y4061155D01*
X1369212Y4053078D01*
X1359408Y4043578D01*
X1350924Y4032859D01*
X1341272Y4016654D01*
X1337970Y4014470D01*
X1334109Y4013708D01*
X1027988Y4013708D01*
X1024331Y4014368D01*
X1021130Y4016349D01*
X1018895Y4019296D01*
X1014933Y4027119D01*
X1007211Y4038346D01*
X998067Y4048506D01*
X987653Y4057294D01*
X976172Y4064609D01*
X963777Y4070350D01*
X950772Y4074414D01*
X937310Y4076649D01*
X923696Y4077106D01*
X910132Y4075785D01*
X896874Y4072585D01*
X884123Y4067708D01*
X872185Y4061155D01*
X861212Y4053078D01*
X851408Y4043578D01*
X842924Y4032859D01*
X835964Y4021124D01*
X830681Y4008577D01*
X827074Y3995420D01*
X825246Y3981907D01*
X825246Y3968292D01*
X827074Y3954779D01*
X830681Y3941622D01*
X835964Y3929075D01*
X842924Y3917340D01*
X851408Y3906621D01*
X861212Y3897122D01*
X872185Y3889044D01*
X884123Y3882491D01*
X896874Y3877614D01*
X910132Y3874414D01*
X923696Y3873093D01*
X937310Y3873550D01*
X950772Y3875786D01*
X963777Y3879850D01*
X976172Y3885590D01*
X987653Y3892905D01*
X998067Y3901694D01*
X1007211Y3911854D01*
X1014933Y3923080D01*
X1018895Y3930904D01*
X1021130Y3933850D01*
X1024331Y3935831D01*
X1027988Y3936492D01*
X1334109Y3936492D01*
X1337970Y3935729D01*
X1341272Y3933545D01*
X1350924Y3917340D01*
X1359408Y3906621D01*
X1369212Y3897122D01*
X1380185Y3889044D01*
X1392123Y3882491D01*
X1404874Y3877614D01*
X1418132Y3874414D01*
X1431696Y3873093D01*
X1445310Y3873550D01*
X1458772Y3875786D01*
X1471777Y3879850D01*
X1484172Y3885590D01*
X1495653Y3892905D01*
X1506067Y3901694D01*
X1515211Y3911854D01*
X1520393Y3919372D01*
X1522679Y3921760D01*
X1525574Y3923284D01*
X1528775Y3923792D01*
X2329281Y3923792D01*
X2333193Y3923029D01*
X2336495Y3920794D01*
X2617774Y3639515D01*
X2619959Y3636314D01*
X2620772Y3632555D01*
X2620111Y3628745D01*
X2618130Y3625494D01*
X2611729Y3618433D01*
X2603195Y3606393D01*
X2596184Y3593388D01*
X2590850Y3579622D01*
X2587294Y3565347D01*
X2585466Y3550665D01*
X2585466Y3535934D01*
X2587294Y3521252D01*
X2590850Y3506978D01*
X2596184Y3493211D01*
X2603195Y3480206D01*
X2611729Y3468166D01*
X2621635Y3457244D01*
X2632862Y3447643D01*
X2637536Y3444544D01*
X2640533Y3441446D01*
X2642006Y3437432D01*
X2641650Y3433114D01*
X2639568Y3429355D01*
X2636113Y3426815D01*
X2631948Y3425901D01*
X2016506Y3425901D01*
X2012391Y3426764D01*
X2008987Y3429203D01*
X2006854Y3432860D01*
X2006396Y3437026D01*
X2007616Y3440988D01*
X2010359Y3444189D01*
X2021078Y3452266D01*
X2031695Y3462528D01*
X2040940Y3474059D01*
X2048713Y3486607D01*
X2050237Y3489960D01*
X1996439Y3489960D01*
X1996439Y3436061D01*
X1995678Y3432200D01*
X1993442Y3428898D01*
X1990191Y3426663D01*
X1986280Y3425901D01*
X1899920Y3425901D01*
X1896008Y3426663D01*
X1892757Y3428898D01*
X1890522Y3432200D01*
X1889760Y3436061D01*
X1889760Y3489960D01*
X1835962Y3489960D01*
X1841195Y3480206D01*
X1849729Y3468166D01*
X1859635Y3457244D01*
X1870862Y3447643D01*
X1875536Y3444544D01*
X1878533Y3441446D01*
X1880006Y3437432D01*
X1879650Y3433114D01*
X1877568Y3429355D01*
X1874113Y3426815D01*
X1869948Y3425901D01*
G37*

%LPC*%
G36*
X999896Y3453993D02*
G01*
X1013510Y3454450D01*
X1026972Y3456686D01*
X1039977Y3460750D01*
X1052372Y3466490D01*
X1063853Y3473805D01*
X1074267Y3482594D01*
X1083411Y3492754D01*
X1091133Y3503980D01*
X1097280Y3516122D01*
X1101750Y3529025D01*
X1104493Y3542385D01*
X1105408Y3556000D01*
X1104493Y3569614D01*
X1101750Y3582974D01*
X1097280Y3595878D01*
X1091133Y3608019D01*
X1083411Y3619246D01*
X1074267Y3629406D01*
X1063853Y3638194D01*
X1052372Y3645509D01*
X1039977Y3651250D01*
X1026972Y3655314D01*
X1013510Y3657549D01*
X999896Y3658006D01*
X986332Y3656685D01*
X973074Y3653485D01*
X960323Y3648608D01*
X948385Y3642055D01*
X937412Y3633978D01*
X927608Y3624478D01*
X919124Y3613759D01*
X912164Y3602024D01*
X906881Y3589477D01*
X903274Y3576320D01*
X901446Y3562807D01*
X901446Y3549192D01*
X903274Y3535679D01*
X906881Y3522522D01*
X912164Y3509975D01*
X919124Y3498240D01*
X927608Y3487521D01*
X937412Y3478022D01*
X948385Y3469944D01*
X960323Y3463391D01*
X973074Y3458514D01*
X986332Y3455314D01*
G37*
G36*
X1212850Y3464204D02*
G01*
X1212850Y3511550D01*
X1165504Y3511550D01*
X1166164Y3509975D01*
X1173124Y3498240D01*
X1181608Y3487521D01*
X1191412Y3478022D01*
X1202385Y3469944D01*
G37*
G36*
X1301750Y3464356D02*
G01*
X1306372Y3466490D01*
X1317853Y3473805D01*
X1328267Y3482594D01*
X1337411Y3492754D01*
X1345133Y3503980D01*
X1348943Y3511550D01*
X1301750Y3511550D01*
G37*
G36*
X1835962Y3596640D02*
G01*
X1889760Y3596640D01*
X1889760Y3650386D01*
X1883156Y3647084D01*
X1870862Y3638956D01*
X1859635Y3629355D01*
X1849729Y3618433D01*
X1841195Y3606393D01*
G37*
G36*
X1996439Y3596640D02*
G01*
X2050237Y3596640D01*
X2048713Y3599992D01*
X2040940Y3612540D01*
X2031695Y3624072D01*
X2021078Y3634333D01*
X2009292Y3643223D01*
X1996439Y3650640D01*
G37*
G36*
X1301750Y3600450D02*
G01*
X1348943Y3600450D01*
X1345133Y3608019D01*
X1337411Y3619246D01*
X1328267Y3629406D01*
X1317853Y3638194D01*
X1306372Y3645509D01*
X1301750Y3647643D01*
G37*
G36*
X1165504Y3600450D02*
G01*
X1212850Y3600450D01*
X1212850Y3647795D01*
X1202385Y3642055D01*
X1191412Y3633978D01*
X1181608Y3624478D01*
X1173124Y3613759D01*
X1166164Y3602024D01*
G37*
G36*
X2313228Y4191762D02*
G01*
X2461971Y4191762D01*
X2468270Y4192473D01*
X2473756Y4194403D01*
X2478633Y4197451D01*
X2482748Y4201566D01*
X2485796Y4206443D01*
X2487726Y4211929D01*
X2488438Y4218228D01*
X2488438Y4366615D01*
X2489200Y4370527D01*
X2491435Y4373829D01*
X2494686Y4376013D01*
X2498598Y4376775D01*
X2502509Y4376013D01*
X2505760Y4373829D01*
X2543810Y4335780D01*
X2545842Y4332884D01*
X2546756Y4329430D01*
X2546451Y4325924D01*
X2542794Y4312666D01*
X2541016Y4299356D01*
X2541016Y4285843D01*
X2542794Y4272534D01*
X2546350Y4259529D01*
X2551633Y4247134D01*
X2558491Y4235551D01*
X2566822Y4224985D01*
X2576525Y4215587D01*
X2587345Y4207611D01*
X2599182Y4201160D01*
X2611729Y4196334D01*
X2624836Y4193184D01*
X2638247Y4191863D01*
X2651709Y4192270D01*
X2664968Y4194556D01*
X2677820Y4198518D01*
X2690063Y4204208D01*
X2701391Y4211421D01*
X2711704Y4220108D01*
X2720695Y4230116D01*
X2728366Y4241241D01*
X2734411Y4253230D01*
X2738831Y4265980D01*
X2741523Y4279138D01*
X2742438Y4292600D01*
X2741523Y4306062D01*
X2738831Y4319219D01*
X2734411Y4331970D01*
X2728366Y4343958D01*
X2720695Y4355084D01*
X2711704Y4365091D01*
X2701391Y4373778D01*
X2690063Y4380992D01*
X2677820Y4386681D01*
X2664968Y4390644D01*
X2651709Y4392930D01*
X2638247Y4393336D01*
X2624836Y4392015D01*
X2611729Y4388866D01*
X2609342Y4387951D01*
X2605532Y4387291D01*
X2601722Y4388104D01*
X2598521Y4390288D01*
X2478735Y4510024D01*
X2472537Y4515154D01*
X2465832Y4518710D01*
X2458618Y4520895D01*
X2450592Y4521708D01*
X1535988Y4521708D01*
X1532331Y4522368D01*
X1529130Y4524349D01*
X1526895Y4527296D01*
X1522933Y4535119D01*
X1515211Y4546346D01*
X1506067Y4556506D01*
X1495653Y4565294D01*
X1484172Y4572609D01*
X1471777Y4578350D01*
X1458772Y4582414D01*
X1445310Y4584649D01*
X1431696Y4585106D01*
X1418132Y4583785D01*
X1404874Y4580585D01*
X1392123Y4575708D01*
X1380185Y4569155D01*
X1369212Y4561078D01*
X1359408Y4551578D01*
X1350924Y4540859D01*
X1341272Y4524654D01*
X1337970Y4522470D01*
X1334109Y4521708D01*
X1027988Y4521708D01*
X1024331Y4522368D01*
X1021130Y4524349D01*
X1018895Y4527296D01*
X1014933Y4535119D01*
X1007211Y4546346D01*
X998067Y4556506D01*
X987653Y4565294D01*
X976172Y4572609D01*
X963777Y4578350D01*
X950772Y4582414D01*
X937310Y4584649D01*
X923696Y4585106D01*
X910132Y4583785D01*
X896874Y4580585D01*
X884123Y4575708D01*
X872185Y4569155D01*
X861212Y4561078D01*
X851408Y4551578D01*
X842924Y4540859D01*
X835964Y4529124D01*
X830681Y4516577D01*
X827074Y4503420D01*
X825246Y4489907D01*
X825246Y4476292D01*
X827074Y4462780D01*
X830681Y4449622D01*
X835964Y4437075D01*
X842924Y4425340D01*
X851408Y4414621D01*
X861212Y4405122D01*
X872185Y4397044D01*
X884123Y4390491D01*
X896874Y4385614D01*
X910132Y4382414D01*
X923696Y4381093D01*
X937310Y4381550D01*
X950772Y4383786D01*
X963777Y4387850D01*
X976172Y4393590D01*
X987653Y4400905D01*
X998067Y4409694D01*
X1007211Y4419854D01*
X1014933Y4431080D01*
X1018895Y4438904D01*
X1021130Y4441850D01*
X1024331Y4443831D01*
X1027988Y4444492D01*
X1334109Y4444492D01*
X1337970Y4443730D01*
X1341272Y4441545D01*
X1350924Y4425340D01*
X1359408Y4414621D01*
X1369212Y4405122D01*
X1380185Y4397044D01*
X1392123Y4390491D01*
X1404874Y4385614D01*
X1418132Y4382414D01*
X1431696Y4381093D01*
X1445310Y4381550D01*
X1458772Y4383786D01*
X1471777Y4387850D01*
X1484172Y4393590D01*
X1495653Y4400905D01*
X1506067Y4409694D01*
X1515211Y4419854D01*
X1522933Y4431080D01*
X1526895Y4438904D01*
X1529130Y4441850D01*
X1532331Y4443831D01*
X1535988Y4444492D01*
X2430881Y4444492D01*
X2434793Y4443730D01*
X2438095Y4441494D01*
X2468829Y4410760D01*
X2471013Y4407509D01*
X2471775Y4403598D01*
X2471013Y4399686D01*
X2468829Y4396435D01*
X2465527Y4394200D01*
X2461615Y4393438D01*
X2313228Y4393438D01*
X2306929Y4392726D01*
X2301443Y4390796D01*
X2296566Y4387748D01*
X2292451Y4383633D01*
X2289403Y4378756D01*
X2287473Y4373270D01*
X2286762Y4366971D01*
X2286762Y4218228D01*
X2287473Y4211929D01*
X2289403Y4206443D01*
X2292451Y4201566D01*
X2296566Y4197451D01*
X2301443Y4194403D01*
X2306929Y4192473D01*
G37*

%LPD*%
D10*
X1435100Y3975100D02*
G01*
X927100Y3975100D01*
X1435100Y4483100D02*
G01*
X927100Y4483100D01*
X2641600Y4292600D02*
G01*
X2451100Y4483100D01*
X1435100Y4483100D01*
X2705100Y3543300D02*
G01*
X2705100Y3606800D01*
X2349500Y3962400D01*
X1447800Y3962400D01*
X1435100Y3975100D01*
X1257300Y3556000D02*
G01*
X1930400Y3556000D01*
X1943100Y3543300D01*
X-419100Y5270500D02*
G01*
X3581400Y5270500D01*
X3581400Y2514600D01*
X-419100Y2514600D01*
X-419100Y5270500D01*
D11*
G01*
X1435100Y4483100D03*
G01*
X1435100Y3975100D03*
G01*
X927100Y3975100D03*
G01*
X927100Y4483100D03*
D12*
G01*
X1943100Y3543300D03*
G01*
X2705100Y3543300D03*
D11*
G01*
X1003300Y3556000D03*
G01*
X1257300Y3556000D03*
D13*
G01*
X2641600Y4292600D03*
G36*
X2312670Y4367529D02*
G01*
X2462529Y4367529D01*
X2462529Y4217670D01*
X2312670Y4217670D01*
G37*
M02*
