G04 Layer: TopSilkscreenLayer*
G04 EasyEDA v6.4.31, 2022-01-29 17:29:22*
G04 67aa8dcb152247358fa929708868e3bd,10*
G04 Gerber Generator version 0.2*
G04 Scale: 100 percent, Rotated: No, Reflected: No *
G04 Dimensions in millimeters *
G04 leading zeros omitted , absolute positions ,4 integer and 5 decimal *
%FSLAX45Y45*%
%MOMM*%

%ADD10C,0.2540*%
%ADD15C,0.2007*%
%ADD16C,0.1524*%

%LPD*%
D16*
X1155700Y4776215D02*
G01*
X1155700Y4667250D01*
X1155700Y4667250D02*
G01*
X1217929Y4667250D01*
X1252220Y4776215D02*
G01*
X1252220Y4667250D01*
X1252220Y4776215D02*
G01*
X1319784Y4776215D01*
X1252220Y4724400D02*
G01*
X1293876Y4724400D01*
X1252220Y4667250D02*
G01*
X1319784Y4667250D01*
X1354073Y4776215D02*
G01*
X1354073Y4667250D01*
X1354073Y4776215D02*
G01*
X1390650Y4776215D01*
X1406144Y4771136D01*
X1416557Y4760721D01*
X1421637Y4750307D01*
X1426971Y4734560D01*
X1426971Y4708652D01*
X1421637Y4693157D01*
X1416557Y4682744D01*
X1406144Y4672329D01*
X1390650Y4667250D01*
X1354073Y4667250D01*
X1466342Y4750307D02*
G01*
X1466342Y4755387D01*
X1471676Y4765802D01*
X1476755Y4771136D01*
X1487170Y4776215D01*
X1507997Y4776215D01*
X1518412Y4771136D01*
X1523492Y4765802D01*
X1528826Y4755387D01*
X1528826Y4744973D01*
X1523492Y4734560D01*
X1513078Y4719065D01*
X1461262Y4667250D01*
X1533905Y4667250D01*
X2324100Y3811015D02*
G01*
X2324100Y3702050D01*
X2324100Y3811015D02*
G01*
X2370836Y3811015D01*
X2386329Y3805936D01*
X2391663Y3800602D01*
X2396743Y3790187D01*
X2396743Y3779773D01*
X2391663Y3769360D01*
X2386329Y3764279D01*
X2370836Y3759200D01*
X2324100Y3759200D01*
X2360422Y3759200D02*
G01*
X2396743Y3702050D01*
X2431034Y3790187D02*
G01*
X2441447Y3795521D01*
X2457195Y3811015D01*
X2457195Y3702050D01*
X1104900Y3798315D02*
G01*
X1104900Y3720337D01*
X1109979Y3704844D01*
X1120394Y3694429D01*
X1136142Y3689350D01*
X1146555Y3689350D01*
X1162050Y3694429D01*
X1172463Y3704844D01*
X1177544Y3720337D01*
X1177544Y3798315D01*
X1211834Y3777487D02*
G01*
X1222247Y3782821D01*
X1237995Y3798315D01*
X1237995Y3689350D01*
X2514600Y4560315D02*
G01*
X2556256Y4451350D01*
X2597658Y4560315D02*
G01*
X2556256Y4451350D01*
X2631947Y4539487D02*
G01*
X2642361Y4544821D01*
X2658109Y4560315D01*
X2658109Y4451350D01*
D10*
X800100Y4508500D02*
G01*
X901700Y4610100D01*
X896061Y4610100D02*
G01*
X1562100Y4610100D01*
X1562100Y4610100D02*
G01*
X1562100Y3848100D01*
X1562100Y3848100D02*
G01*
X800100Y3848100D01*
X800100Y3848100D02*
G01*
X800100Y4513846D01*
X2070100Y3619500D02*
G01*
X2578100Y3619500D01*
X2578100Y3619500D02*
G01*
X2578100Y3543300D01*
X2578100Y3543300D02*
G01*
X2578100Y3467100D01*
X2578100Y3467100D02*
G01*
X2070100Y3467100D01*
X2070100Y3467100D02*
G01*
X2070100Y3543300D01*
X2070100Y3543300D02*
G01*
X2070100Y3619500D01*
X2578100Y3543300D02*
G01*
X2603500Y3543300D01*
X2070100Y3543300D02*
G01*
X2044700Y3543300D01*
X889000Y3657600D02*
G01*
X1358900Y3657600D01*
X1358900Y3441700D01*
X889000Y3441700D01*
X889000Y3657600D01*
D15*
X2260600Y4419600D02*
G01*
X2768600Y4419600D01*
X2260600Y4165600D02*
G01*
X2260600Y4419600D01*
X2260600Y4165600D02*
G01*
X2768600Y4165600D01*
X2768600Y4165600D02*
G01*
X2768600Y4419600D01*
M02*
