G04 Layer: TopPasteMaskLayer*
G04 EasyEDA v6.4.31, 2022-01-30 11:59:04*
G04 67aa8dcb152247358fa929708868e3bd,10*
G04 Gerber Generator version 0.2*
G04 Scale: 100 percent, Rotated: No, Reflected: No *
G04 Dimensions in millimeters *
G04 leading zeros omitted , absolute positions ,4 integer and 5 decimal *
%FSLAX45Y45*%
%MOMM*%

%ADD10C,0.0001*%

%LPD*%
G36*
X1449222Y3067608D02*
G01*
X1444193Y3062579D01*
X1444193Y3039821D01*
X1481226Y3039821D01*
X1481226Y3006801D01*
X1444193Y3006801D01*
X1444193Y2982620D01*
X1449222Y2977591D01*
X1529181Y2977591D01*
X1534210Y2982620D01*
X1534210Y3062579D01*
X1529181Y3067608D01*
G37*
G36*
X1290218Y3067608D02*
G01*
X1285189Y3062579D01*
X1285189Y2982620D01*
X1290218Y2977591D01*
X1369212Y2977591D01*
X1374190Y2982620D01*
X1374190Y3006801D01*
X1336192Y3006801D01*
X1336192Y3039821D01*
X1374190Y3039821D01*
X1374190Y3062579D01*
X1369212Y3067608D01*
G37*
G36*
X2833522Y3156508D02*
G01*
X2828493Y3151479D01*
X2828493Y3128721D01*
X2865475Y3128721D01*
X2865475Y3095701D01*
X2828493Y3095701D01*
X2828493Y3071520D01*
X2833522Y3066491D01*
X2913481Y3066491D01*
X2918510Y3071520D01*
X2918510Y3151479D01*
X2913481Y3156508D01*
G37*
G36*
X2674518Y3156508D02*
G01*
X2669489Y3151479D01*
X2669489Y3071520D01*
X2674518Y3066491D01*
X2753512Y3066491D01*
X2758490Y3071520D01*
X2758490Y3095701D01*
X2720492Y3095701D01*
X2720492Y3128721D01*
X2758490Y3128721D01*
X2758490Y3151479D01*
X2753512Y3156508D01*
G37*
G36*
X3201822Y3651808D02*
G01*
X3196793Y3646779D01*
X3196793Y3624021D01*
X3233775Y3624021D01*
X3233775Y3591001D01*
X3196793Y3591001D01*
X3196793Y3566820D01*
X3201822Y3561791D01*
X3281781Y3561791D01*
X3286810Y3566820D01*
X3286810Y3646779D01*
X3281781Y3651808D01*
G37*
G36*
X3042818Y3651808D02*
G01*
X3037789Y3646779D01*
X3037789Y3566820D01*
X3042818Y3561791D01*
X3121812Y3561791D01*
X3126790Y3566820D01*
X3126790Y3591001D01*
X3088792Y3591001D01*
X3088792Y3624021D01*
X3126790Y3624021D01*
X3126790Y3646779D01*
X3121812Y3651808D01*
G37*
G36*
X1981314Y3251707D02*
G01*
X2087486Y3251707D01*
X2087486Y3186684D01*
X1981314Y3186684D01*
G37*
G36*
X1981314Y3156712D02*
G01*
X2087486Y3156712D01*
X2087486Y3091687D01*
X1981314Y3091687D01*
G37*
G36*
X1981314Y3061715D02*
G01*
X2087486Y3061715D01*
X2087486Y2996692D01*
X1981314Y2996692D01*
G37*
G36*
X2281288Y3061715D02*
G01*
X2387460Y3061715D01*
X2387460Y2996692D01*
X2281288Y2996692D01*
G37*
G36*
X2281288Y3251707D02*
G01*
X2387460Y3251707D01*
X2387460Y3186684D01*
X2281288Y3186684D01*
G37*
M02*
