G04 Layer: TopSolderMaskLayer*
G04 EasyEDA v6.4.31, 2022-01-30 11:59:04*
G04 67aa8dcb152247358fa929708868e3bd,10*
G04 Gerber Generator version 0.2*
G04 Scale: 100 percent, Rotated: No, Reflected: No *
G04 Dimensions in millimeters *
G04 leading zeros omitted , absolute positions ,4 integer and 5 decimal *
%FSLAX45Y45*%
%MOMM*%

%ADD21C,1.9032*%
%ADD23C,1.8542*%
%ADD25C,1.6256*%

%LPD*%
D21*
G01*
X2617203Y4229100D03*
G36*
X2265934Y4133850D02*
G01*
X2265934Y4324350D01*
X2456434Y4324350D01*
X2456434Y4133850D01*
G37*
D23*
G01*
X3670300Y4241800D03*
G01*
X3670300Y3987800D03*
G01*
X800100Y3517900D03*
G01*
X800100Y3263900D03*
G36*
X1439671Y2974339D02*
G01*
X1439671Y3070860D01*
X1530350Y3070860D01*
X1530350Y2974339D01*
G37*
G36*
X1289050Y2974339D02*
G01*
X1289050Y3070860D01*
X1379728Y3070860D01*
X1379728Y2974339D01*
G37*
G36*
X2823972Y3063239D02*
G01*
X2823972Y3159760D01*
X2914650Y3159760D01*
X2914650Y3063239D01*
G37*
G36*
X2673350Y3063239D02*
G01*
X2673350Y3159760D01*
X2764027Y3159760D01*
X2764027Y3063239D01*
G37*
G36*
X3192272Y3558539D02*
G01*
X3192272Y3655060D01*
X3282950Y3655060D01*
X3282950Y3558539D01*
G37*
G36*
X3041650Y3558539D02*
G01*
X3041650Y3655060D01*
X3132327Y3655060D01*
X3132327Y3558539D01*
G37*
D25*
G01*
X1244612Y4442993D03*
G01*
X1494599Y4193006D03*
G01*
X994600Y4193006D03*
G36*
X1971040Y3176523D02*
G01*
X1971040Y3261868D01*
X2097531Y3261868D01*
X2097531Y3176523D01*
G37*
G36*
X1971040Y3081528D02*
G01*
X1971040Y3166871D01*
X2097531Y3166871D01*
X2097531Y3081528D01*
G37*
G36*
X1971040Y2986531D02*
G01*
X1971040Y3071876D01*
X2097531Y3071876D01*
X2097531Y2986531D01*
G37*
G36*
X2271013Y2986531D02*
G01*
X2271013Y3071876D01*
X2397506Y3071876D01*
X2397506Y2986531D01*
G37*
G36*
X2271013Y3176523D02*
G01*
X2271013Y3261868D01*
X2397506Y3261868D01*
X2397506Y3176523D01*
G37*
M02*
