G04 Layer: TopLayer*
G04 EasyEDA v6.4.31, 2022-01-30 11:59:04*
G04 67aa8dcb152247358fa929708868e3bd,10*
G04 Gerber Generator version 0.2*
G04 Scale: 100 percent, Rotated: No, Reflected: No *
G04 Dimensions in millimeters *
G04 leading zeros omitted , absolute positions ,4 integer and 5 decimal *
%FSLAX45Y45*%
%MOMM*%

%ADD10C,0.2540*%
%ADD11C,0.2030*%
%ADD12C,0.6096*%
%ADD15C,1.7000*%
%ADD16R,1.7000X1.7000*%
%ADD17C,1.6510*%
%ADD18C,1.5240*%

%LPD*%
G36*
X251764Y2846730D02*
G01*
X247853Y2847492D01*
X244602Y2849676D01*
X242366Y2852978D01*
X241554Y2856839D01*
X229362Y4789627D01*
X230124Y4793538D01*
X232308Y4796840D01*
X235610Y4799076D01*
X239572Y4799838D01*
X4891582Y4774895D01*
X4895443Y4774082D01*
X4898745Y4771898D01*
X4900930Y4768596D01*
X4901692Y4764735D01*
X4901692Y2893263D01*
X4900930Y2889402D01*
X4898745Y2886100D01*
X4895494Y2883916D01*
X4891633Y2883103D01*
X1723491Y2857500D01*
X267716Y2857500D01*
X265988Y2856788D01*
X258927Y2849727D01*
X255625Y2847492D01*
G37*

%LPC*%
G36*
X444500Y2882392D02*
G01*
X459892Y2883357D01*
X475030Y2886100D01*
X489712Y2890672D01*
X503732Y2897022D01*
X516940Y2904998D01*
X529031Y2914497D01*
X539902Y2925368D01*
X549402Y2937459D01*
X557377Y2950667D01*
X563727Y2964688D01*
X568299Y2979369D01*
X571042Y2994507D01*
X572008Y3009900D01*
X571042Y3025292D01*
X568299Y3040430D01*
X563727Y3055112D01*
X557377Y3069132D01*
X549402Y3082340D01*
X539902Y3094431D01*
X529031Y3105302D01*
X516940Y3114802D01*
X503732Y3122777D01*
X489712Y3129127D01*
X475030Y3133699D01*
X459892Y3136442D01*
X444500Y3137408D01*
X429107Y3136442D01*
X413969Y3133699D01*
X399288Y3129127D01*
X385267Y3122777D01*
X372059Y3114802D01*
X359968Y3105302D01*
X349097Y3094431D01*
X339598Y3082340D01*
X331622Y3069132D01*
X325272Y3055112D01*
X320700Y3040430D01*
X317957Y3025292D01*
X316992Y3009900D01*
X317957Y2994507D01*
X320700Y2979369D01*
X325272Y2964688D01*
X331622Y2950667D01*
X339598Y2937459D01*
X349097Y2925368D01*
X359968Y2914497D01*
X372059Y2904998D01*
X385267Y2897022D01*
X399288Y2890672D01*
X413969Y2886100D01*
X429107Y2883357D01*
G37*
G36*
X4711700Y2907792D02*
G01*
X4727092Y2908757D01*
X4742230Y2911500D01*
X4756912Y2916072D01*
X4770932Y2922422D01*
X4784140Y2930398D01*
X4796231Y2939897D01*
X4807102Y2950768D01*
X4816602Y2962859D01*
X4824577Y2976067D01*
X4830927Y2990088D01*
X4835499Y3004769D01*
X4838242Y3019907D01*
X4839208Y3035300D01*
X4838242Y3050692D01*
X4835499Y3065830D01*
X4830927Y3080512D01*
X4824577Y3094532D01*
X4816602Y3107740D01*
X4807102Y3119831D01*
X4796231Y3130702D01*
X4784140Y3140202D01*
X4770932Y3148177D01*
X4756912Y3154527D01*
X4742230Y3159099D01*
X4727092Y3161842D01*
X4711700Y3162808D01*
X4696307Y3161842D01*
X4681169Y3159099D01*
X4666488Y3154527D01*
X4652467Y3148177D01*
X4639259Y3140202D01*
X4627168Y3130702D01*
X4616297Y3119831D01*
X4606798Y3107740D01*
X4598822Y3094532D01*
X4592472Y3080512D01*
X4587900Y3065830D01*
X4585157Y3050692D01*
X4584192Y3035300D01*
X4585157Y3019907D01*
X4587900Y3004769D01*
X4592472Y2990088D01*
X4598822Y2976067D01*
X4606798Y2962859D01*
X4616297Y2950768D01*
X4627168Y2939897D01*
X4639259Y2930398D01*
X4652467Y2922422D01*
X4666488Y2916072D01*
X4681169Y2911500D01*
X4696307Y2908757D01*
G37*
G36*
X1294638Y2953512D02*
G01*
X1374140Y2953512D01*
X1380439Y2954223D01*
X1385925Y2956102D01*
X1390802Y2959201D01*
X1394917Y2963265D01*
X1397965Y2968193D01*
X1400098Y2974238D01*
X1402232Y2977794D01*
X1405636Y2980232D01*
X1409700Y2981045D01*
X1413764Y2980232D01*
X1417167Y2977794D01*
X1419301Y2974238D01*
X1421434Y2968193D01*
X1424482Y2963265D01*
X1428597Y2959201D01*
X1433474Y2956102D01*
X1438960Y2954223D01*
X1445260Y2953512D01*
X1524762Y2953512D01*
X1531112Y2954223D01*
X1536547Y2956102D01*
X1541475Y2959201D01*
X1545539Y2963265D01*
X1549196Y2967431D01*
X1553210Y2969006D01*
X1557477Y2968802D01*
X1563725Y2967126D01*
X1573530Y2966262D01*
X1583283Y2967126D01*
X1592783Y2969666D01*
X1601673Y2973781D01*
X1609750Y2979420D01*
X1616659Y2986379D01*
X1622298Y2994406D01*
X1626463Y3003346D01*
X1629003Y3012795D01*
X1629714Y3020822D01*
X1630629Y3024225D01*
X1632661Y3027121D01*
X1951177Y3345687D01*
X1954479Y3347872D01*
X1958390Y3348634D01*
X2248814Y3348634D01*
X2252675Y3347872D01*
X2255977Y3345687D01*
X2258212Y3342386D01*
X2258974Y3338474D01*
X2258212Y3334613D01*
X2255977Y3331311D01*
X2189073Y3264408D01*
X2185771Y3262172D01*
X2181860Y3261410D01*
X2119579Y3261410D01*
X2114651Y3261614D01*
X2111298Y3263239D01*
X2108758Y3265982D01*
X2107590Y3267811D01*
X2103526Y3271926D01*
X2098598Y3274974D01*
X2093163Y3276904D01*
X2086813Y3277615D01*
X1981962Y3277615D01*
X1975662Y3276904D01*
X1970176Y3274974D01*
X1965299Y3271926D01*
X1961184Y3267811D01*
X1958136Y3262934D01*
X1956206Y3257448D01*
X1955495Y3251149D01*
X1955495Y3187242D01*
X1956206Y3180943D01*
X1958289Y3175050D01*
X1958848Y3171698D01*
X1958289Y3168345D01*
X1956206Y3162452D01*
X1955495Y3156153D01*
X1955495Y3146806D01*
X2001570Y3146806D01*
X2001570Y3150616D01*
X2002332Y3154527D01*
X2004517Y3157829D01*
X2007819Y3160014D01*
X2011730Y3160776D01*
X2057095Y3160776D01*
X2060956Y3160014D01*
X2064257Y3157829D01*
X2066493Y3154527D01*
X2067255Y3150616D01*
X2067255Y3146806D01*
X2113330Y3146806D01*
X2113330Y3156153D01*
X2112619Y3162452D01*
X2110790Y3167583D01*
X2110232Y3171190D01*
X2110994Y3174746D01*
X2112975Y3177844D01*
X2115870Y3180029D01*
X2119426Y3181045D01*
X2122982Y3181400D01*
X2130806Y3183737D01*
X2133803Y3184194D01*
X2181910Y3184194D01*
X2185822Y3183432D01*
X2189124Y3181197D01*
X2270455Y3099866D01*
X2272538Y3096869D01*
X2273401Y3093364D01*
X2272995Y3089757D01*
X2271369Y3086506D01*
X2268677Y3084068D01*
X2265273Y3081934D01*
X2261158Y3077819D01*
X2258110Y3072942D01*
X2256180Y3067456D01*
X2255469Y3061157D01*
X2255469Y2997250D01*
X2256180Y2990951D01*
X2258110Y2985465D01*
X2261158Y2980588D01*
X2265273Y2976473D01*
X2270150Y2973425D01*
X2275636Y2971495D01*
X2281936Y2970784D01*
X2386787Y2970784D01*
X2393137Y2971495D01*
X2398572Y2973425D01*
X2403500Y2976473D01*
X2407564Y2980588D01*
X2410866Y2985820D01*
X2413152Y2988360D01*
X2416149Y2990037D01*
X2419502Y2990596D01*
X2919780Y2990596D01*
X2927807Y2991408D01*
X2935020Y2993593D01*
X2941675Y2997149D01*
X2947924Y3002280D01*
X3109468Y3163824D01*
X3114598Y3170072D01*
X3118154Y3176727D01*
X3120390Y3183991D01*
X3121304Y3192780D01*
X3122523Y3196539D01*
X3125063Y3199587D01*
X3128619Y3201416D01*
X3132582Y3201771D01*
X3139998Y3200908D01*
X4642561Y3200908D01*
X4648860Y3201619D01*
X4654346Y3203549D01*
X4659223Y3206597D01*
X4663338Y3210712D01*
X4666386Y3215589D01*
X4668316Y3221075D01*
X4669028Y3227374D01*
X4669028Y3440379D01*
X4668316Y3446678D01*
X4666386Y3452164D01*
X4663338Y3457041D01*
X4659223Y3461156D01*
X4654346Y3464204D01*
X4648860Y3466134D01*
X4642561Y3466846D01*
X3247948Y3466846D01*
X3244088Y3467608D01*
X3240786Y3469792D01*
X3238601Y3473094D01*
X3237788Y3477006D01*
X3238601Y3480866D01*
X3240786Y3484168D01*
X3264560Y3507994D01*
X3269691Y3514191D01*
X3273247Y3520897D01*
X3275431Y3528110D01*
X3276701Y3533089D01*
X3279089Y3536086D01*
X3282391Y3538016D01*
X3289198Y3540353D01*
X3294075Y3543401D01*
X3298139Y3547465D01*
X3301237Y3552393D01*
X3303168Y3557828D01*
X3303879Y3564178D01*
X3303879Y3649421D01*
X3303168Y3655771D01*
X3301237Y3661206D01*
X3298139Y3666134D01*
X3294075Y3670198D01*
X3289147Y3673297D01*
X3283712Y3675176D01*
X3277362Y3675887D01*
X3232353Y3675887D01*
X3228441Y3676700D01*
X3225139Y3678885D01*
X3222955Y3682187D01*
X3222193Y3686048D01*
X3222955Y3689959D01*
X3225139Y3693261D01*
X3478123Y3946194D01*
X3481425Y3948429D01*
X3485286Y3949192D01*
X3562400Y3949192D01*
X3566058Y3948480D01*
X3569258Y3946499D01*
X3571494Y3943502D01*
X3576370Y3933596D01*
X3584295Y3921810D01*
X3593642Y3911142D01*
X3604310Y3901795D01*
X3616096Y3893870D01*
X3628796Y3887622D01*
X3642258Y3883050D01*
X3656126Y3880307D01*
X3670300Y3879342D01*
X3684473Y3880307D01*
X3698341Y3883050D01*
X3711803Y3887622D01*
X3724503Y3893870D01*
X3736289Y3901795D01*
X3746957Y3911142D01*
X3756304Y3921810D01*
X3764229Y3933596D01*
X3770477Y3946296D01*
X3775049Y3959758D01*
X3777792Y3973626D01*
X3778758Y3987800D01*
X3777792Y4001973D01*
X3775049Y4015841D01*
X3770477Y4029303D01*
X3764229Y4042003D01*
X3756304Y4053789D01*
X3746957Y4064457D01*
X3736289Y4073804D01*
X3724503Y4081729D01*
X3711803Y4087977D01*
X3698341Y4092549D01*
X3684473Y4095292D01*
X3670300Y4096258D01*
X3656126Y4095292D01*
X3642258Y4092549D01*
X3628796Y4087977D01*
X3616096Y4081729D01*
X3604310Y4073804D01*
X3593642Y4064457D01*
X3584295Y4053789D01*
X3576370Y4042003D01*
X3571494Y4032097D01*
X3569258Y4029100D01*
X3566058Y4027119D01*
X3562400Y4026408D01*
X3465576Y4026408D01*
X3457549Y4025595D01*
X3450336Y4023410D01*
X3443681Y4019854D01*
X3437432Y4014724D01*
X3128467Y3705758D01*
X3123336Y3699510D01*
X3119780Y3692855D01*
X3116478Y3681476D01*
X3114243Y3678529D01*
X3111042Y3676599D01*
X3107385Y3675887D01*
X3047238Y3675887D01*
X3040888Y3675176D01*
X3035452Y3673297D01*
X3030524Y3670198D01*
X3026460Y3666134D01*
X3023362Y3661206D01*
X3021431Y3655771D01*
X3020263Y3650894D01*
X3017977Y3647998D01*
X3014827Y3646068D01*
X3011220Y3645408D01*
X889508Y3645408D01*
X881481Y3644595D01*
X874268Y3642410D01*
X867562Y3638854D01*
X861364Y3633724D01*
X849121Y3621532D01*
X846023Y3619398D01*
X842365Y3618534D01*
X838657Y3619093D01*
X828141Y3622649D01*
X814273Y3625392D01*
X800100Y3626358D01*
X785926Y3625392D01*
X772058Y3622649D01*
X758596Y3618077D01*
X745896Y3611829D01*
X734110Y3603904D01*
X723442Y3594557D01*
X714095Y3583889D01*
X706170Y3572103D01*
X699922Y3559403D01*
X695350Y3545941D01*
X692607Y3532073D01*
X691642Y3517900D01*
X692607Y3503726D01*
X695350Y3489858D01*
X699922Y3476396D01*
X706170Y3463696D01*
X714095Y3451910D01*
X723442Y3441242D01*
X734110Y3431895D01*
X745896Y3423970D01*
X758596Y3417722D01*
X772058Y3413150D01*
X785926Y3410407D01*
X800100Y3409442D01*
X814273Y3410407D01*
X828141Y3413150D01*
X841603Y3417722D01*
X854303Y3423970D01*
X866089Y3431895D01*
X876757Y3441242D01*
X886104Y3451910D01*
X894029Y3463696D01*
X900277Y3476396D01*
X904849Y3489858D01*
X907592Y3503726D01*
X908558Y3517900D01*
X907592Y3532073D01*
X904849Y3545941D01*
X901852Y3554780D01*
X901344Y3558540D01*
X902258Y3562299D01*
X904494Y3565398D01*
X907694Y3567480D01*
X911453Y3568192D01*
X1813661Y3568192D01*
X1817522Y3567429D01*
X1820824Y3565194D01*
X1823059Y3561943D01*
X1823821Y3558032D01*
X1823059Y3554120D01*
X1820824Y3550869D01*
X1375714Y3105708D01*
X1370584Y3099511D01*
X1369314Y3097072D01*
X1367028Y3094228D01*
X1363929Y3092348D01*
X1360373Y3091688D01*
X1294638Y3091688D01*
X1288288Y3090976D01*
X1282852Y3089097D01*
X1277924Y3085998D01*
X1273860Y3081934D01*
X1270762Y3077006D01*
X1268831Y3071571D01*
X1268120Y3065221D01*
X1268120Y2979978D01*
X1268831Y2973628D01*
X1270762Y2968193D01*
X1273860Y2963265D01*
X1277924Y2959201D01*
X1282852Y2956102D01*
X1288288Y2954223D01*
G37*
G36*
X1981962Y2970784D02*
G01*
X2086813Y2970784D01*
X2093163Y2971495D01*
X2098598Y2973425D01*
X2104034Y2976829D01*
X2107184Y2978150D01*
X2110536Y2978353D01*
X2113737Y2977438D01*
X2116328Y2976270D01*
X2125776Y2973730D01*
X2135581Y2972866D01*
X2145385Y2973730D01*
X2154834Y2976270D01*
X2163775Y2980385D01*
X2171801Y2986024D01*
X2178761Y2992983D01*
X2184400Y3001010D01*
X2188514Y3009950D01*
X2191054Y3019399D01*
X2191918Y3029204D01*
X2191054Y3039008D01*
X2188514Y3048457D01*
X2184400Y3057398D01*
X2178761Y3065424D01*
X2171801Y3072384D01*
X2163775Y3078022D01*
X2154834Y3082137D01*
X2145385Y3084677D01*
X2135632Y3085541D01*
X2124456Y3084474D01*
X2120239Y3084931D01*
X2116632Y3087065D01*
X2114194Y3090468D01*
X2113330Y3094583D01*
X2113330Y3101594D01*
X2067255Y3101594D01*
X2067255Y3097784D01*
X2066493Y3093872D01*
X2064257Y3090570D01*
X2060956Y3088386D01*
X2057095Y3087624D01*
X2011730Y3087624D01*
X2007819Y3088386D01*
X2004517Y3090570D01*
X2002332Y3093872D01*
X2001570Y3097784D01*
X2001570Y3101594D01*
X1955495Y3101594D01*
X1955495Y3092246D01*
X1956206Y3085947D01*
X1958289Y3080054D01*
X1958848Y3076702D01*
X1958289Y3073349D01*
X1956206Y3067456D01*
X1955495Y3061157D01*
X1955495Y2997250D01*
X1956206Y2990951D01*
X1958136Y2985465D01*
X1961184Y2980588D01*
X1965299Y2976473D01*
X1970176Y2973425D01*
X1975662Y2971495D01*
G37*
G36*
X847750Y3166719D02*
G01*
X854303Y3169970D01*
X866089Y3177895D01*
X876757Y3187242D01*
X886104Y3197910D01*
X894029Y3209696D01*
X897280Y3216249D01*
X847750Y3216249D01*
G37*
G36*
X752500Y3166719D02*
G01*
X752500Y3216249D01*
X702919Y3216249D01*
X706170Y3209696D01*
X714095Y3197910D01*
X723442Y3187242D01*
X734110Y3177895D01*
X745896Y3169970D01*
G37*
G36*
X847750Y3311499D02*
G01*
X897280Y3311499D01*
X894029Y3318103D01*
X886104Y3329889D01*
X876757Y3340557D01*
X866089Y3349904D01*
X854303Y3357829D01*
X847750Y3361080D01*
G37*
G36*
X702919Y3311499D02*
G01*
X752500Y3311499D01*
X752500Y3361080D01*
X745896Y3357829D01*
X734110Y3349904D01*
X723442Y3340557D01*
X714095Y3329889D01*
X706170Y3318103D01*
G37*
G36*
X1491183Y4090974D02*
G01*
X1504797Y4091432D01*
X1518259Y4093718D01*
X1531315Y4097731D01*
X1543659Y4103471D01*
X1555140Y4110837D01*
X1565554Y4119626D01*
X1574698Y4129735D01*
X1582420Y4140962D01*
X1588566Y4153154D01*
X1593037Y4166057D01*
X1595780Y4179417D01*
X1596694Y4193032D01*
X1595780Y4206595D01*
X1593037Y4220006D01*
X1588566Y4232859D01*
X1582420Y4245051D01*
X1574698Y4256278D01*
X1565554Y4266387D01*
X1555140Y4275175D01*
X1543659Y4282541D01*
X1531315Y4288282D01*
X1518259Y4292295D01*
X1504797Y4294581D01*
X1491183Y4295038D01*
X1477619Y4293666D01*
X1464360Y4290517D01*
X1451610Y4285589D01*
X1439672Y4279036D01*
X1428699Y4270959D01*
X1418894Y4261510D01*
X1410411Y4250791D01*
X1403502Y4239056D01*
X1398168Y4226509D01*
X1394561Y4213352D01*
X1392732Y4199839D01*
X1392732Y4186174D01*
X1394561Y4172661D01*
X1398168Y4159504D01*
X1403502Y4146956D01*
X1410411Y4135221D01*
X1418894Y4124553D01*
X1428699Y4115054D01*
X1439672Y4106976D01*
X1451610Y4100423D01*
X1464360Y4095496D01*
X1477619Y4092346D01*
G37*
G36*
X950163Y4101236D02*
G01*
X950163Y4148582D01*
X902817Y4148582D01*
X903478Y4146956D01*
X910437Y4135221D01*
X918870Y4124553D01*
X928674Y4115054D01*
X939647Y4106976D01*
G37*
G36*
X1039063Y4101337D02*
G01*
X1043686Y4103471D01*
X1055166Y4110837D01*
X1065580Y4119626D01*
X1074724Y4129735D01*
X1082446Y4140962D01*
X1086256Y4148582D01*
X1039063Y4148582D01*
G37*
G36*
X2276754Y4118203D02*
G01*
X2312314Y4118203D01*
X2312314Y4180230D01*
X2250287Y4180230D01*
X2250287Y4144670D01*
X2250998Y4138371D01*
X2252878Y4132884D01*
X2255977Y4128008D01*
X2260041Y4123893D01*
X2264968Y4120794D01*
X2270404Y4118914D01*
G37*
G36*
X2410002Y4118203D02*
G01*
X2445613Y4118203D01*
X2451912Y4118914D01*
X2457399Y4120794D01*
X2462276Y4123893D01*
X2466390Y4128008D01*
X2469438Y4132884D01*
X2471369Y4138371D01*
X2472080Y4144670D01*
X2472080Y4180230D01*
X2410002Y4180230D01*
G37*
G36*
X2613660Y4118254D02*
G01*
X2627833Y4118711D01*
X2641854Y4120997D01*
X2655519Y4125010D01*
X2668473Y4130801D01*
X2680665Y4138168D01*
X2691739Y4147007D01*
X2701645Y4157218D01*
X2710129Y4168597D01*
X2717088Y4180992D01*
X2722422Y4194149D01*
X2726029Y4207916D01*
X2727858Y4221988D01*
X2727858Y4236212D01*
X2726029Y4250283D01*
X2722422Y4264050D01*
X2717088Y4277207D01*
X2710129Y4289602D01*
X2701645Y4300982D01*
X2691739Y4311192D01*
X2680665Y4320032D01*
X2668473Y4327398D01*
X2655519Y4333138D01*
X2641854Y4337202D01*
X2627833Y4339488D01*
X2613660Y4339945D01*
X2599486Y4338574D01*
X2585669Y4335424D01*
X2572308Y4330496D01*
X2559710Y4323943D01*
X2548077Y4315815D01*
X2537561Y4306265D01*
X2528316Y4295444D01*
X2520594Y4283506D01*
X2514396Y4270705D01*
X2509926Y4257243D01*
X2507234Y4243273D01*
X2506319Y4229100D01*
X2507234Y4214926D01*
X2509926Y4200956D01*
X2514396Y4187494D01*
X2520594Y4174693D01*
X2528316Y4162755D01*
X2537561Y4151934D01*
X2548077Y4142384D01*
X2559710Y4134256D01*
X2572308Y4127703D01*
X2585669Y4122775D01*
X2599486Y4119626D01*
G37*
G36*
X3717950Y4144619D02*
G01*
X3724503Y4147870D01*
X3736289Y4155795D01*
X3746957Y4165142D01*
X3756304Y4175810D01*
X3764229Y4187596D01*
X3767480Y4194149D01*
X3717950Y4194149D01*
G37*
G36*
X3622700Y4144619D02*
G01*
X3622700Y4194149D01*
X3573119Y4194149D01*
X3576370Y4187596D01*
X3584295Y4175810D01*
X3593642Y4165142D01*
X3604310Y4155795D01*
X3616096Y4147870D01*
G37*
G36*
X1039063Y4237482D02*
G01*
X1086256Y4237482D01*
X1082446Y4245051D01*
X1074724Y4256278D01*
X1065580Y4266387D01*
X1055166Y4275175D01*
X1043686Y4282541D01*
X1039063Y4284675D01*
G37*
G36*
X902817Y4237482D02*
G01*
X950163Y4237482D01*
X950163Y4284776D01*
X939647Y4279036D01*
X928674Y4270959D01*
X918870Y4261510D01*
X910437Y4250791D01*
X903478Y4239056D01*
G37*
G36*
X2410002Y4277969D02*
G01*
X2472080Y4277969D01*
X2472080Y4313529D01*
X2471369Y4319828D01*
X2469438Y4325315D01*
X2466390Y4330192D01*
X2462276Y4334306D01*
X2457399Y4337405D01*
X2451912Y4339285D01*
X2445613Y4339996D01*
X2410002Y4339996D01*
G37*
G36*
X2250287Y4277969D02*
G01*
X2312314Y4277969D01*
X2312314Y4339996D01*
X2276754Y4339996D01*
X2270404Y4339285D01*
X2264968Y4337405D01*
X2260041Y4334306D01*
X2255977Y4330192D01*
X2252878Y4325315D01*
X2250998Y4319828D01*
X2250287Y4313529D01*
G37*
G36*
X3573119Y4289399D02*
G01*
X3622700Y4289399D01*
X3622700Y4338980D01*
X3616096Y4335729D01*
X3604310Y4327804D01*
X3593642Y4318457D01*
X3584295Y4307789D01*
X3576370Y4296003D01*
G37*
G36*
X3717950Y4289399D02*
G01*
X3767480Y4289399D01*
X3764229Y4296003D01*
X3756304Y4307789D01*
X3746957Y4318457D01*
X3736289Y4327804D01*
X3724503Y4335729D01*
X3717950Y4338980D01*
G37*
G36*
X1241196Y4340961D02*
G01*
X1254810Y4341418D01*
X1268272Y4343704D01*
X1281328Y4347768D01*
X1293672Y4353509D01*
X1305153Y4360824D01*
X1315567Y4369612D01*
X1324711Y4379722D01*
X1332433Y4390999D01*
X1338580Y4403140D01*
X1343050Y4416044D01*
X1345793Y4429404D01*
X1346708Y4443018D01*
X1345793Y4456633D01*
X1343050Y4469993D01*
X1338580Y4482846D01*
X1332433Y4495038D01*
X1324711Y4506264D01*
X1315567Y4516374D01*
X1305153Y4525213D01*
X1293672Y4532528D01*
X1281328Y4538268D01*
X1268272Y4542332D01*
X1254810Y4544568D01*
X1241196Y4545025D01*
X1227632Y4543653D01*
X1214374Y4540504D01*
X1201623Y4535627D01*
X1189685Y4529074D01*
X1178712Y4520946D01*
X1168908Y4511497D01*
X1160424Y4500778D01*
X1153515Y4489043D01*
X1148181Y4476496D01*
X1144574Y4463338D01*
X1142746Y4449826D01*
X1142746Y4436211D01*
X1144574Y4422698D01*
X1148181Y4409541D01*
X1153515Y4396994D01*
X1160424Y4385259D01*
X1168908Y4374540D01*
X1178712Y4365040D01*
X1189685Y4356963D01*
X1201623Y4350410D01*
X1214374Y4345533D01*
X1227632Y4342333D01*
G37*
G36*
X4686300Y4495292D02*
G01*
X4701692Y4496257D01*
X4716830Y4499000D01*
X4731512Y4503572D01*
X4745532Y4509922D01*
X4758740Y4517898D01*
X4770831Y4527397D01*
X4781702Y4538268D01*
X4791202Y4550359D01*
X4799177Y4563567D01*
X4805527Y4577588D01*
X4810099Y4592269D01*
X4812842Y4607407D01*
X4813808Y4622800D01*
X4812842Y4638192D01*
X4810099Y4653330D01*
X4805527Y4668012D01*
X4799177Y4682032D01*
X4791202Y4695240D01*
X4781702Y4707331D01*
X4770831Y4718202D01*
X4758740Y4727702D01*
X4745532Y4735677D01*
X4731512Y4742027D01*
X4716830Y4746599D01*
X4701692Y4749342D01*
X4686300Y4750308D01*
X4670907Y4749342D01*
X4655769Y4746599D01*
X4641088Y4742027D01*
X4627067Y4735677D01*
X4613859Y4727702D01*
X4601768Y4718202D01*
X4590897Y4707331D01*
X4581398Y4695240D01*
X4573422Y4682032D01*
X4567072Y4668012D01*
X4562500Y4653330D01*
X4559757Y4638192D01*
X4558792Y4622800D01*
X4559757Y4607407D01*
X4562500Y4592269D01*
X4567072Y4577588D01*
X4573422Y4563567D01*
X4581398Y4550359D01*
X4590897Y4538268D01*
X4601768Y4527397D01*
X4613859Y4517898D01*
X4627067Y4509922D01*
X4641088Y4503572D01*
X4655769Y4499000D01*
X4670907Y4496257D01*
G37*
G36*
X381000Y4507992D02*
G01*
X396392Y4508957D01*
X411530Y4511700D01*
X426212Y4516272D01*
X440232Y4522622D01*
X453440Y4530598D01*
X465531Y4540097D01*
X476402Y4550968D01*
X485901Y4563059D01*
X493877Y4576267D01*
X500227Y4590288D01*
X504799Y4604969D01*
X507542Y4620107D01*
X508508Y4635500D01*
X507542Y4650892D01*
X504799Y4666030D01*
X500227Y4680712D01*
X493877Y4694732D01*
X485901Y4707940D01*
X476402Y4720031D01*
X465531Y4730902D01*
X453440Y4740402D01*
X440232Y4748377D01*
X426212Y4754727D01*
X411530Y4759299D01*
X396392Y4762042D01*
X381000Y4763008D01*
X365607Y4762042D01*
X350469Y4759299D01*
X335788Y4754727D01*
X321767Y4748377D01*
X308559Y4740402D01*
X296468Y4730902D01*
X285597Y4720031D01*
X276098Y4707940D01*
X268122Y4694732D01*
X261772Y4680712D01*
X257200Y4666030D01*
X254457Y4650892D01*
X253492Y4635500D01*
X254457Y4620107D01*
X257200Y4604969D01*
X261772Y4590288D01*
X268122Y4576267D01*
X276098Y4563059D01*
X285597Y4550968D01*
X296468Y4540097D01*
X308559Y4530598D01*
X321767Y4522622D01*
X335788Y4516272D01*
X350469Y4511700D01*
X365607Y4508957D01*
G37*

%LPD*%
D11*
X3149600Y3430778D02*
G01*
X3149600Y3236976D01*
X3210559Y3430778D02*
G01*
X3210559Y3236976D01*
X3210559Y3430778D02*
G01*
X3293618Y3430778D01*
X3321304Y3421634D01*
X3330702Y3412489D01*
X3339845Y3393947D01*
X3339845Y3375405D01*
X3330702Y3356863D01*
X3321304Y3347720D01*
X3293618Y3338576D01*
X3210559Y3338576D01*
X3275329Y3338576D02*
G01*
X3339845Y3236976D01*
X3672331Y3403092D02*
G01*
X3653790Y3421634D01*
X3626104Y3430778D01*
X3589274Y3430778D01*
X3561588Y3421634D01*
X3543045Y3403092D01*
X3543045Y3384550D01*
X3552190Y3366262D01*
X3561588Y3356863D01*
X3580129Y3347720D01*
X3635502Y3329178D01*
X3653790Y3320034D01*
X3663188Y3310889D01*
X3672331Y3292347D01*
X3672331Y3264662D01*
X3653790Y3246120D01*
X3626104Y3236976D01*
X3589274Y3236976D01*
X3561588Y3246120D01*
X3543045Y3264662D01*
X3733291Y3430778D02*
G01*
X3733291Y3236976D01*
X3733291Y3430778D02*
G01*
X3853434Y3430778D01*
X3733291Y3338576D02*
G01*
X3807206Y3338576D01*
X3733291Y3236976D02*
G01*
X3853434Y3236976D01*
X3914393Y3430778D02*
G01*
X3914393Y3236976D01*
X3914393Y3430778D02*
G01*
X4043679Y3236976D01*
X4043679Y3430778D02*
G01*
X4043679Y3236976D01*
X4233925Y3403092D02*
G01*
X4215384Y3421634D01*
X4187697Y3430778D01*
X4150868Y3430778D01*
X4123181Y3421634D01*
X4104640Y3403092D01*
X4104640Y3384550D01*
X4113784Y3366262D01*
X4123181Y3356863D01*
X4141470Y3347720D01*
X4197095Y3329178D01*
X4215384Y3320034D01*
X4224781Y3310889D01*
X4233925Y3292347D01*
X4233925Y3264662D01*
X4215384Y3246120D01*
X4187697Y3236976D01*
X4150868Y3236976D01*
X4123181Y3246120D01*
X4104640Y3264662D01*
X4350258Y3430778D02*
G01*
X4331970Y3421634D01*
X4313427Y3403092D01*
X4304029Y3384550D01*
X4294886Y3356863D01*
X4294886Y3310889D01*
X4304029Y3282950D01*
X4313427Y3264662D01*
X4331970Y3246120D01*
X4350258Y3236976D01*
X4387341Y3236976D01*
X4405629Y3246120D01*
X4424172Y3264662D01*
X4433570Y3282950D01*
X4442713Y3310889D01*
X4442713Y3356863D01*
X4433570Y3384550D01*
X4424172Y3403092D01*
X4405629Y3421634D01*
X4387341Y3430778D01*
X4350258Y3430778D01*
X4503674Y3430778D02*
G01*
X4503674Y3236976D01*
X4503674Y3430778D02*
G01*
X4586731Y3430778D01*
X4614418Y3421634D01*
X4623815Y3412489D01*
X4632959Y3393947D01*
X4632959Y3375405D01*
X4623815Y3356863D01*
X4614418Y3347720D01*
X4586731Y3338576D01*
X4503674Y3338576D01*
X4568190Y3338576D02*
G01*
X4632959Y3236976D01*
D10*
X2034413Y3029204D02*
G01*
X2115464Y3029204D01*
X2115464Y3029204D02*
G01*
X2135581Y3029204D01*
X3237636Y3535629D02*
G01*
X3196742Y3494735D01*
X3133597Y3494735D01*
X3082543Y3443681D01*
X3082543Y3191484D01*
X2920263Y3029204D01*
X2334386Y3029204D01*
X3237636Y3606800D02*
G01*
X3237636Y3535629D01*
X2869336Y3111500D02*
G01*
X2801035Y3111500D01*
X1485036Y3022600D02*
G01*
X1519173Y3022600D01*
X1519173Y3022600D02*
G01*
X1573504Y3022600D01*
X2640355Y3219195D02*
G01*
X2640355Y3341573D01*
X2594660Y3387267D01*
X1938172Y3387267D01*
X1573504Y3022600D01*
X2334386Y3219195D02*
G01*
X2640355Y3219195D01*
X2640355Y3219195D02*
G01*
X2761640Y3219195D01*
X2801035Y3179800D01*
X2801035Y3111500D01*
X3086963Y3606800D02*
G01*
X889000Y3606800D01*
X800100Y3517900D01*
X1334363Y3022600D02*
G01*
X1402664Y3022600D01*
X3670300Y3987800D02*
G01*
X3465093Y3987800D01*
X3155391Y3678097D01*
X3155391Y3551986D01*
X3138931Y3535527D01*
X1860118Y3535527D01*
X1402664Y3078073D01*
X1402664Y3022600D01*
X3670300Y4241800D02*
G01*
X3566261Y4345838D01*
X2562682Y4345838D01*
X2474188Y4257344D01*
X2474188Y4229100D01*
X2361209Y4229100D02*
G01*
X2474188Y4229100D01*
X800100Y3263900D02*
G01*
X1114247Y2949752D01*
X1727301Y2949752D01*
X1901748Y3124200D01*
X2034413Y3124200D01*
X2202103Y3222828D02*
G01*
X2313406Y3111500D01*
X2718663Y3111500D01*
X2202103Y3222828D02*
G01*
X2286101Y3306826D01*
X2576855Y3306826D01*
X2202103Y3222828D02*
G01*
X2202078Y3222802D01*
X2119071Y3222802D01*
X2115464Y3219195D01*
X2034413Y3219195D02*
G01*
X2115464Y3219195D01*
G36*
X1444701Y2979399D02*
G01*
X1444701Y3065800D01*
X1525348Y3065800D01*
X1525348Y2979399D01*
G37*
G36*
X1374698Y2979399D02*
G01*
X1374698Y3065800D01*
X1294051Y3065800D01*
X1294051Y2979399D01*
G37*
G36*
X2829001Y3068299D02*
G01*
X2829001Y3154700D01*
X2909648Y3154700D01*
X2909648Y3068299D01*
G37*
G36*
X2758998Y3068299D02*
G01*
X2758998Y3154700D01*
X2678351Y3154700D01*
X2678351Y3068299D01*
G37*
G36*
X3197301Y3563599D02*
G01*
X3197301Y3650000D01*
X3277948Y3650000D01*
X3277948Y3563599D01*
G37*
G36*
X3127298Y3563599D02*
G01*
X3127298Y3650000D01*
X3046651Y3650000D01*
X3046651Y3563599D01*
G37*
G36*
X1981314Y3251707D02*
G01*
X2087486Y3251707D01*
X2087486Y3186684D01*
X1981314Y3186684D01*
G37*
G36*
X1981314Y3156712D02*
G01*
X2087486Y3156712D01*
X2087486Y3091687D01*
X1981314Y3091687D01*
G37*
G36*
X1981314Y3061715D02*
G01*
X2087486Y3061715D01*
X2087486Y2996692D01*
X1981314Y2996692D01*
G37*
G36*
X2281288Y3061715D02*
G01*
X2387460Y3061715D01*
X2387460Y2996692D01*
X2281288Y2996692D01*
G37*
G36*
X2281288Y3251707D02*
G01*
X2387460Y3251707D01*
X2387460Y3186684D01*
X2281288Y3186684D01*
G37*
X-520700Y5549900D02*
G01*
X5892800Y5549900D01*
X5892800Y1993900D01*
X-520700Y1993900D01*
X-520700Y5549900D01*
D15*
G01*
X2617203Y4229100D03*
D16*
G01*
X2361196Y4229100D03*
D17*
G01*
X3670300Y4241800D03*
G01*
X3670300Y3987800D03*
G01*
X800100Y3517900D03*
G01*
X800100Y3263900D03*
D18*
G01*
X1244612Y4442993D03*
G01*
X1494599Y4193006D03*
G01*
X994600Y4193006D03*
D12*
G01*
X2576855Y3306826D03*
G01*
X1573504Y3022600D03*
G01*
X2135581Y3029204D03*
M02*
