G04 Layer: TopSilkscreenLayer*
G04 EasyEDA v6.4.31, 2022-01-30 11:59:04*
G04 67aa8dcb152247358fa929708868e3bd,10*
G04 Gerber Generator version 0.2*
G04 Scale: 100 percent, Rotated: No, Reflected: No *
G04 Dimensions in millimeters *
G04 leading zeros omitted , absolute positions ,4 integer and 5 decimal *
%FSLAX45Y45*%
%MOMM*%

%ADD10C,0.2540*%
%ADD19C,0.1200*%
%ADD20C,0.1524*%

%LPD*%
D20*
X2490203Y4725415D02*
G01*
X2490203Y4616450D01*
X2490203Y4725415D02*
G01*
X2526525Y4725415D01*
X2542273Y4720336D01*
X2552433Y4709921D01*
X2557767Y4699507D01*
X2562847Y4683760D01*
X2562847Y4657852D01*
X2557767Y4642357D01*
X2552433Y4631944D01*
X2542273Y4621529D01*
X2526525Y4616450D01*
X2490203Y4616450D01*
X2597137Y4704587D02*
G01*
X2607551Y4709921D01*
X2623299Y4725415D01*
X2623299Y4616450D01*
X3644900Y4468368D02*
G01*
X3644900Y4359402D01*
X3644900Y4359402D02*
G01*
X3707129Y4359402D01*
X3741420Y4468368D02*
G01*
X3741420Y4359402D01*
X3741420Y4468368D02*
G01*
X3808984Y4468368D01*
X3741420Y4416552D02*
G01*
X3783075Y4416552D01*
X3741420Y4359402D02*
G01*
X3808984Y4359402D01*
X3843274Y4468368D02*
G01*
X3843274Y4359402D01*
X3843274Y4468368D02*
G01*
X3879850Y4468368D01*
X3895343Y4463287D01*
X3905758Y4452873D01*
X3910838Y4442460D01*
X3916172Y4426712D01*
X3916172Y4400804D01*
X3910838Y4385310D01*
X3905758Y4374895D01*
X3895343Y4364481D01*
X3879850Y4359402D01*
X3843274Y4359402D01*
X3950461Y4447539D02*
G01*
X3960875Y4452873D01*
X3976370Y4468368D01*
X3976370Y4359402D01*
X774700Y3744468D02*
G01*
X774700Y3635502D01*
X774700Y3635502D02*
G01*
X836929Y3635502D01*
X871220Y3744468D02*
G01*
X871220Y3635502D01*
X871220Y3744468D02*
G01*
X938784Y3744468D01*
X871220Y3692652D02*
G01*
X912876Y3692652D01*
X871220Y3635502D02*
G01*
X938784Y3635502D01*
X973073Y3744468D02*
G01*
X973073Y3635502D01*
X973073Y3744468D02*
G01*
X1009650Y3744468D01*
X1025144Y3739387D01*
X1035557Y3728973D01*
X1040637Y3718560D01*
X1045971Y3702812D01*
X1045971Y3676904D01*
X1040637Y3661410D01*
X1035557Y3650995D01*
X1025144Y3640581D01*
X1009650Y3635502D01*
X973073Y3635502D01*
X1085342Y3718560D02*
G01*
X1085342Y3723639D01*
X1090676Y3734054D01*
X1095755Y3739387D01*
X1106170Y3744468D01*
X1126997Y3744468D01*
X1137412Y3739387D01*
X1142492Y3734054D01*
X1147826Y3723639D01*
X1147826Y3713226D01*
X1142492Y3702812D01*
X1132078Y3687318D01*
X1080262Y3635502D01*
X1152905Y3635502D01*
X1409700Y3239515D02*
G01*
X1409700Y3130550D01*
X1409700Y3239515D02*
G01*
X1456436Y3239515D01*
X1471929Y3234436D01*
X1477263Y3229102D01*
X1482344Y3218687D01*
X1482344Y3208273D01*
X1477263Y3197860D01*
X1471929Y3192779D01*
X1456436Y3187700D01*
X1409700Y3187700D01*
X1446021Y3187700D02*
G01*
X1482344Y3130550D01*
X1516634Y3218687D02*
G01*
X1527047Y3224021D01*
X1542795Y3239515D01*
X1542795Y3130550D01*
X2794000Y3328415D02*
G01*
X2794000Y3219450D01*
X2794000Y3328415D02*
G01*
X2840736Y3328415D01*
X2856229Y3323336D01*
X2861563Y3318002D01*
X2866643Y3307587D01*
X2866643Y3297173D01*
X2861563Y3286760D01*
X2856229Y3281679D01*
X2840736Y3276600D01*
X2794000Y3276600D01*
X2830322Y3276600D02*
G01*
X2866643Y3219450D01*
X2906268Y3302507D02*
G01*
X2906268Y3307587D01*
X2911347Y3318002D01*
X2916681Y3323336D01*
X2927095Y3328415D01*
X2947670Y3328415D01*
X2958084Y3323336D01*
X2963418Y3318002D01*
X2968497Y3307587D01*
X2968497Y3297173D01*
X2963418Y3286760D01*
X2953004Y3271265D01*
X2900934Y3219450D01*
X2973831Y3219450D01*
X3162300Y3823715D02*
G01*
X3162300Y3714750D01*
X3162300Y3823715D02*
G01*
X3209036Y3823715D01*
X3224529Y3818636D01*
X3229863Y3813302D01*
X3234943Y3802887D01*
X3234943Y3792473D01*
X3229863Y3782060D01*
X3224529Y3776979D01*
X3209036Y3771900D01*
X3162300Y3771900D01*
X3198622Y3771900D02*
G01*
X3234943Y3714750D01*
X3279647Y3823715D02*
G01*
X3336797Y3823715D01*
X3305809Y3782060D01*
X3321304Y3782060D01*
X3331718Y3776979D01*
X3336797Y3771900D01*
X3342131Y3756152D01*
X3342131Y3745737D01*
X3336797Y3730244D01*
X3326384Y3719829D01*
X3310890Y3714750D01*
X3295395Y3714750D01*
X3279647Y3719829D01*
X3274568Y3724910D01*
X3269234Y3735323D01*
X1235900Y4824984D02*
G01*
X1235900Y4716018D01*
X1235900Y4824984D02*
G01*
X1282636Y4824984D01*
X1298130Y4819904D01*
X1303464Y4814570D01*
X1308544Y4804155D01*
X1308544Y4793742D01*
X1303464Y4783328D01*
X1298130Y4778247D01*
X1282636Y4773168D01*
X1235900Y4773168D01*
X1272222Y4773168D02*
G01*
X1308544Y4716018D01*
X1342834Y4824984D02*
G01*
X1342834Y4716018D01*
X1342834Y4824984D02*
G01*
X1389570Y4824984D01*
X1405318Y4819904D01*
X1410398Y4814570D01*
X1415732Y4804155D01*
X1415732Y4788662D01*
X1410398Y4778247D01*
X1405318Y4773168D01*
X1389570Y4767834D01*
X1342834Y4767834D01*
X1450022Y4804155D02*
G01*
X1460436Y4809489D01*
X1475930Y4824984D01*
X1475930Y4716018D01*
X2176005Y3461512D02*
G01*
X2176005Y3383534D01*
X2181085Y3368039D01*
X2191499Y3357626D01*
X2207247Y3352545D01*
X2217661Y3352545D01*
X2233155Y3357626D01*
X2243569Y3368039D01*
X2248649Y3383534D01*
X2248649Y3461512D01*
X2282939Y3440684D02*
G01*
X2293353Y3446018D01*
X2309101Y3461512D01*
X2309101Y3352545D01*
D19*
X2238235Y4379213D02*
G01*
X2238235Y4109212D01*
X2278113Y4439157D02*
G01*
X2698229Y4439157D01*
X2758173Y4109212D02*
G01*
X2218169Y4109212D01*
X2526271Y4513071D02*
G01*
X2526271Y4487163D01*
X2551163Y4487163D01*
X2475217Y4513071D02*
G01*
X2475217Y4487163D01*
X2501125Y4487163D01*
X2551163Y4564126D02*
G01*
X2475217Y4487163D01*
X2602217Y4564126D02*
G01*
X2526271Y4487163D01*
D10*
X3538011Y3964800D02*
G01*
X3565237Y3964800D01*
X3775362Y3964800D02*
G01*
X3802588Y3964800D01*
X667811Y3240900D02*
G01*
X695037Y3240900D01*
X905162Y3240900D02*
G01*
X932388Y3240900D01*
D20*
X1452321Y2956539D02*
G01*
X1548208Y2956539D01*
X1548208Y3088660D01*
X1452321Y3088660D01*
X1367078Y2956539D02*
G01*
X1271191Y2956539D01*
X1271191Y3088660D01*
X1367078Y3088660D01*
X2836621Y3045439D02*
G01*
X2932508Y3045439D01*
X2932508Y3177560D01*
X2836621Y3177560D01*
X2751378Y3045439D02*
G01*
X2655491Y3045439D01*
X2655491Y3177560D01*
X2751378Y3177560D01*
X3204921Y3540739D02*
G01*
X3300808Y3540739D01*
X3300808Y3672860D01*
X3204921Y3672860D01*
X3119678Y3540739D02*
G01*
X3023791Y3540739D01*
X3023791Y3672860D01*
X3119678Y3672860D01*
D10*
X1379948Y4143006D02*
G01*
X1108900Y4143006D01*
X772172Y4682083D02*
G01*
X1722183Y4682083D01*
X1722183Y3732072D01*
X772172Y3732072D01*
X772172Y4682083D01*
X2104400Y2964200D02*
G01*
X2264399Y2964200D01*
X2264399Y2964200D02*
G01*
X2264399Y3284199D01*
X2264399Y3284199D02*
G01*
X2104400Y3284199D01*
X2104400Y2964200D02*
G01*
X2104400Y3284199D01*
D19*
G75*
G01*
X2698204Y4439100D02*
G02*
X2764577Y4108801I-190000J-209999D01*
G75*
G01*
X2278205Y4439100D02*
G03*
X2214532Y4108366I199999J-210000D01*
D10*
G75*
G01*
X3574278Y4290240D02*
G03*
X3538012Y3964800I96022J-175441D01*
G75*
G01*
X3802588Y3964800D02*
G03*
X3766322Y4290240I-132288J149999D01*
G75*
G01*
X704078Y3566340D02*
G03*
X667812Y3240900I96022J-175441D01*
G75*
G01*
X932388Y3240900D02*
G03*
X896122Y3566340I-132288J149999D01*
G75*
G01*
X1244536Y4278389D02*
G03*
X1247076Y4278389I1270J-135343D01*
G75*
G01
X2063763Y3289300D02*
G03X2063763Y3289300I-6350J0D01*
M02*
